<svg xmlns="http://www.w3.org/2000/svg" fill='#ff7c04' viewBox="0 0 512 640" x="0px" y="0px"><title>dust-air-pollution-pm2.5-environment</title><g data-name="Layer 19"><path d="M313.838,244.16c-.1-.08-.2-.156-.3-.234C313.642,244,313.739,244.082,313.838,244.16Z"/><path d="M313.235,243.685q-.384-.3-.782-.577C312.715,243.3,312.978,243.488,313.235,243.685Z"/><path d="M201.656,345.9a38.347,38.347,0,0,0,17.172,8.328,38.125,38.125,0,0,1-1.759-4.277c-.52.032-1.042.053-1.569.053A25.34,25.34,0,0,1,201.656,345.9Z"/><path d="M253.471,376.678c-.093-.23-.2-.453-.289-.686a38.859,38.859,0,0,1-4.436-.293A33.659,33.659,0,0,0,253.471,376.678Z"/><path d="M51,172A49.992,49.992,0,0,1,11.753,91.032,37,37,0,0,1,43.215,27.525a57,57,0,1,1,94.526,63.486A42.51,42.51,0,0,1,90.4,152.786,49.656,49.656,0,0,1,51,172ZM37,41A23,23,0,0,0,25.649,84,7,7,0,0,1,26.88,95.278a36,36,0,1,0,54.764,45.614,7,7,0,0,1,8.5-2.841,28.5,28.5,0,0,0,33.332-43.408,7,7,0,0,1,.444-8.838A43,43,0,1,0,53.113,38.636a7,7,0,0,1-8.61,3.623A22.925,22.925,0,0,0,37,41Z"/><path d="M391.5,231a47.626,47.626,0,0,1-45.381-33.449,61.522,61.522,0,0,1-16.918-6.39,39.488,39.488,0,0,1-37.394-68.97,44.506,44.506,0,1,1,66.927-48.186A62.225,62.225,0,0,1,397.6,86.953a42.509,42.509,0,0,1,36.988,76.538A47.511,47.511,0,0,1,391.5,231Zm-61.873-54.736a7,7,0,0,1,3.774,1.1,47.873,47.873,0,0,0,19.349,7.153,7,7,0,0,1,5.9,5.565A33.5,33.5,0,0,0,425,183.5a33.221,33.221,0,0,0-6.3-19.53,7,7,0,0,1,3.935-10.87,28.5,28.5,0,1,0-22.186-51.8,7,7,0,0,1-8.4-.752A48.29,48.29,0,0,0,353.692,88.36a7,7,0,0,1-7.805-6.381,30.5,30.5,0,1,0-37.913,32.084,7,7,0,0,1,5,8.75c-.2.695-.395,1.395-.57,2.1a7,7,0,0,1-4.883,5.061A25.5,25.5,0,0,0,314.5,180a25.178,25.178,0,0,0,11.863-2.929A7,7,0,0,1,329.627,176.264Z"/><path d="M56,512a55.995,55.995,0,0,1-6.565-111.6,45,45,0,0,1,86.89,22.359,36.5,36.5,0,0,1-32.534,62.426A56.282,56.282,0,0,1,56,512ZM92,384a31.136,31.136,0,0,0-30.311,24.491,7,7,0,0,1-6.683,5.536,41.992,41.992,0,1,0,39.02,59.812,7,7,0,0,1,8.981-3.5,22.5,22.5,0,0,0,21.484-39.2,7,7,0,0,1-2.683-7.626A31,31,0,0,0,92,384Z"/><path d="M81.5,217A20.5,20.5,0,1,1,102,196.5,20.523,20.523,0,0,1,81.5,217Zm0-27a6.5,6.5,0,1,0,6.5,6.5A6.508,6.508,0,0,0,81.5,190Z"/><path d="M169.5,435A21.5,21.5,0,1,1,191,413.5,21.525,21.525,0,0,1,169.5,435Zm0-29a7.5,7.5,0,1,0,7.5,7.5A7.508,7.508,0,0,0,169.5,406Z"/><path d="M459,262a20,20,0,1,1,20-20A20.023,20.023,0,0,1,459,262Zm0-26a6,6,0,1,0,6,6A6.006,6.006,0,0,0,459,236Z"/><path d="M476,62a25,25,0,1,1,25-25A25.028,25.028,0,0,1,476,62Zm0-36a11,11,0,1,0,11,11A11.013,11.013,0,0,0,476,26Z"/><path d="M420,512a39.736,39.736,0,0,1-38.257-28.242A45.394,45.394,0,0,1,340.5,510h-.039a45.5,45.5,0,0,1-.444-91v-.036c0-1.93.09-3.878.266-5.826a46,46,0,1,1,66.133-60.118,65.193,65.193,0,0,1,36.26,11.122A45,45,0,1,1,467,447c-.4,0-.791,0-1.188-.016a65.526,65.526,0,0,1-7.77,12.641A40.012,40.012,0,0,1,420,512Zm-41.587-47.835a6.991,6.991,0,0,1,3.281.817,51.828,51.828,0,0,0,7.682,3.3,7,7,0,0,1,4.733,6.02A26,26,0,0,0,446,472a25.765,25.765,0,0,0-2.344-10.785,7,7,0,0,1,1.147-7.571,51.763,51.763,0,0,0,9.968-16.5,7,7,0,0,1,7.6-4.485,31,31,0,1,0-15.208-54.469,7,7,0,0,1-8.838.106,51.442,51.442,0,0,0-32.26-11.27c-1.02-.021-2.162.041-3.528.132a7,7,0,0,1-6.934-4.32A32,32,0,1,0,351.068,403.3a7,7,0,0,1,3.636,7.311,51.3,51.3,0,0,0-.236,15.141,7,7,0,0,1-8.212,7.781,31.832,31.832,0,0,0-5.73-.535H340.5a31.5,31.5,0,0,0-.025,63h.027a31.411,31.411,0,0,0,31.017-26.039,7,7,0,0,1,6.9-5.8Z"/><path d="M258,384a41.246,41.246,0,0,1-36.475-22.279,45.584,45.584,0,0,1-36.207-25.874,32.31,32.31,0,0,1-22.463-12.358,51.485,51.485,0,1,1-12.709-92.069,51.972,51.972,0,0,1,21.039-22.563,30.5,30.5,0,1,1,59.5,5.523q.823.7,1.62,1.439a49.492,49.492,0,0,1,71.372,16.475,29.5,29.5,0,0,1-7.5,58.517,49.29,49.29,0,0,1-23.859,13.764A41,41,0,0,1,258,384Zm-67.929-62.053a7,7,0,0,1,6.621,4.738,31.532,31.532,0,0,0,29.546,21.307,7,7,0,0,1,6.493,4.53,27,27,0,1,0,30.336-36.04,7,7,0,0,1-5.583-5.63,31.21,31.21,0,0,0-2.93-8.67,7,7,0,0,1,6.185-10.189A35.392,35.392,0,0,0,288.114,278.8a7,7,0,0,1,7.287-2.351A15.5,15.5,0,1,0,299.554,246l-.247.006a6.975,6.975,0,0,1-6.454-4.114,35.488,35.488,0,0,0-56.445-11.456,7,7,0,0,1-10.142-.672,38.166,38.166,0,0,0-8.017-7.273,7,7,0,0,1-2.232-9.138A16.286,16.286,0,0,0,218,205.5a16.5,16.5,0,1,0-32.208,5.057,7,7,0,0,1-3.882,8.563,37.993,37.993,0,0,0-21.175,23.5,7,7,0,0,1-9.759,4.192A37.122,37.122,0,0,0,134.5,243a37.5,37.5,0,1,0,25.572,64.915,7,7,0,0,1,11.268,2.5A18.428,18.428,0,0,0,188.5,322c.386,0,.768-.017,1.147-.04C189.789,321.951,189.931,321.947,190.071,321.947Z"/></g><text x="0" y="527" fill="#000000" font-size="5px" font-weight="bold" font-family="'Helvetica Neue', Helvetica, Arial-Unicode, Arial, Sans-serif">Created by VINZENCE STUDIO</text><text x="0" y="532" fill="#000000" font-size="5px" font-weight="bold" font-family="'Helvetica Neue', Helvetica, Arial-Unicode, Arial, Sans-serif">from the Noun Project</text></svg>