<svg xmlns="http://www.w3.org/2000/svg" xmlns:xlink="http://www.w3.org/1999/xlink" version="1.1" x="0px" y="0px" viewBox="0 0 109 109" fill='#38A3A5' enable-background="new 0 0 109 109" xml:space="preserve"><path d="M54.561,93.792c-4.116,0-7.909-1.883-10.416-5.168L19.1,58.252c-0.142-0.167-0.298-0.355-0.453-0.55  l-0.192-0.231c-0.08-0.096-0.151-0.197-0.214-0.302c-3.311-4.369-5.059-9.557-5.059-15.023c0-13.75,11.187-24.938,24.937-24.938  c6.07,0,11.77,2.144,16.3,6.085c4.528-3.941,10.229-6.085,16.299-6.085c13.75,0,24.937,11.187,24.937,24.938  c0,5.631-1.84,10.944-5.325,15.378c-0.043,0.065-0.09,0.128-0.14,0.19l-0.127,0.157c-0.001,0.001-0.068,0.083-0.069,0.085  l-0.151,0.182L64.951,88.651C62.502,91.892,58.694,93.792,54.561,93.792z M22.492,54.506l0.041,0.05  c0.154,0.193,0.277,0.341,0.405,0.492l25.097,30.433c0.022,0.027,0.044,0.054,0.065,0.082c1.552,2.052,3.908,3.229,6.461,3.229  c2.553,0,4.907-1.177,6.459-3.229l24.994-30.641l0.027,0.019c0.024-0.044,0.049-0.087,0.076-0.129l-0.007-0.006l0.051-0.062  c0.038-0.055,0.077-0.109,0.119-0.162c2.861-3.575,4.373-7.875,4.373-12.436c0-10.994-8.943-19.938-19.937-19.938  c-5.523,0-10.667,2.225-14.481,6.264c-0.944,1-2.689,1-3.635,0c-3.816-4.039-8.959-6.264-14.482-6.264  c-10.993,0-19.937,8.944-19.937,19.938c0,4.447,1.45,8.666,4.194,12.199C22.417,54.397,22.456,54.451,22.492,54.506z M86.274,42.218  c0-8.779-7.142-15.921-15.921-15.921c-1.381,0-2.5,1.119-2.5,2.5s1.119,2.5,2.5,2.5c6.022,0,10.921,4.899,10.921,10.921  c0,1.381,1.119,2.5,2.5,2.5S86.274,43.599,86.274,42.218z M81.563,47.67c-1.697,0-3.074,1.377-3.074,3.074  c0,1.698,1.377,3.076,3.074,3.076s3.076-1.378,3.076-3.076C84.639,49.047,83.26,47.67,81.563,47.67z"/></svg>