<svg xmlns="http://www.w3.org/2000/svg" viewBox="0 0 500 500"><g id="freepik--background-simple--inject-4"><path d="M64,401.43c3,30-28,24-36,37-6.26,10.17-7,16.66-7,19H463.48c3.15-13.39,20.27-92.54,7.52-180-14-96-84-173-149-181s-71,57-103,81-86-26-145-14-78,111-65,162S61,371.43,64,401.43Z" style="fill:#108404"></path><path d="M64,401.43c3,30-28,24-36,37-6.26,10.17-7,16.66-7,19H463.48c3.15-13.39,20.27-92.54,7.52-180-14-96-84-173-149-181s-71,57-103,81-86-26-145-14-78,111-65,162S61,371.43,64,401.43Z" style="fill:#fff;opacity:0.8"></path></g><g id="freepik--Clouds--inject-4"><path d="M224.66,107.59c-.31-.94-.63-1.89-1-2.83-12.58-35-71.12-37.41-71.12,5.6,0,8.28-19.88,0-27.34,10.76s.83,17.4-9.11,20.71-10.77-5-23.19-4.14S82.16,150.11,78,153.43s-4.14,1.65-13.25,2.48S54,163.37,54,163.37H271.84s8.28-24.85-6.63-34-14.9,3.31-26.5-1.66C229.13,123.64,227.34,115.85,224.66,107.59Z" style="fill:none;stroke:#b2b2b2;stroke-linecap:round;stroke-linejoin:round"></path><path d="M232.19,154.3s4.51-13.94-6.56-24.2-22.57-4.51-25.85,0-3.28,13.13-8.61,14-4.11-9-15.59-6.56-7,13.94-12.31,16.4-5.33-6.56-12.72-3.69-7,8.21-7,8.21" style="fill:none;stroke:#b2b2b2;stroke-linecap:round;stroke-linejoin:round"></path><path d="M173.27,126.43a20.79,20.79,0,0,0-21-1.82c-11.88,5.48-6.4,16.9-11.88,19.64s-8.22-.46-15.07,2.74-6.39,7.76-6.39,7.76" style="fill:none;stroke:#b2b2b2;stroke-linecap:round;stroke-linejoin:round"></path><path d="M349.57,64.86c-.16-.49-.32-1-.5-1.5-6.66-18.51-37.63-19.78-37.63,3,0,4.38-10.51,0-14.46,5.69s.44,9.2-4.82,11-5.69-2.63-12.26-2.2-5.7,6.58-7.89,8.33-2.19.88-7,1.31-5.7,4-5.7,4H374.53s4.38-13.15-3.5-18-7.89,1.76-14-.87C351.94,73.36,351,69.23,349.57,64.86Z" style="fill:none;stroke:#b2b2b2;stroke-linecap:round;stroke-linejoin:round"></path><path d="M353.56,89.57s2.39-7.37-3.47-12.8-11.94-2.39-13.67,0-1.74,6.94-4.56,7.38-2.17-4.78-8.25-3.47-3.69,7.37-6.51,8.68-2.82-3.48-6.72-2-3.69,4.34-3.69,4.34" style="fill:none;stroke:#b2b2b2;stroke-linecap:round;stroke-linejoin:round"></path><path d="M322.39,74.83a11,11,0,0,0-11.11-1C305,76.76,307.9,82.8,305,84.25s-4.35-.24-8,1.45-3.38,4.11-3.38,4.11" style="fill:none;stroke:#b2b2b2;stroke-linecap:round;stroke-linejoin:round"></path><path d="M254.73,207.22q-.16-.53-.36-1.05c-4.66-13-26.33-13.86-26.33,2.07,0,3.07-7.36,0-10.13,4s.31,6.44-3.37,7.66-4-1.84-8.59-1.53-4,4.6-5.52,5.83-1.53.61-4.91.92-4,2.76-4,2.76H272.2s3.07-9.2-2.45-12.58-5.52,1.23-9.82-.61C256.39,213.16,255.72,210.27,254.73,207.22Z" style="fill:none;stroke:#b2b2b2;stroke-linecap:round;stroke-linejoin:round"></path><path d="M257.52,224.51a9,9,0,0,0-2.43-9c-4.1-3.8-8.35-1.67-9.57,0s-1.22,4.86-3.19,5.17-1.52-3.35-5.77-2.43-2.59,5.16-4.56,6.07-2-2.43-4.71-1.37-2.58,3-2.58,3" style="fill:none;stroke:#b2b2b2;stroke-linecap:round;stroke-linejoin:round"></path><path d="M235.7,214.19a7.7,7.7,0,0,0-7.78-.67c-4.4,2-2.37,6.25-4.4,7.27s-3-.17-5.58,1-2.36,2.88-2.36,2.88" style="fill:none;stroke:#b2b2b2;stroke-linecap:round;stroke-linejoin:round"></path></g><g id="freepik--Trees--inject-4"><path d="M209.73,356.44c0,27.54-18.93,38.17-42.29,38.17S125.15,384,125.15,356.44s18.94-89.36,42.29-89.36S209.73,328.89,209.73,356.44Z" style="fill:#108404"></path><path d="M209.73,356.44c0,27.54-18.93,38.17-42.29,38.17S125.15,384,125.15,356.44s18.94-89.36,42.29-89.36S209.73,328.89,209.73,356.44Z" style="fill:#fff;opacity:0.23"></path><polygon points="166.56 306.55 165.12 336.21 148.97 315.25 164.2 339.11 164.07 350.72 153.01 344.91 153.82 335.56 151.05 343.62 139.99 337.5 163.81 354.58 163.34 364.9 134.15 354.91 148.13 362 132.76 367.8 150.41 362.97 163.08 368.77 160.36 457.43 170.03 457.43 168.09 379.73 184.71 370.7 193.16 374.9 187.27 369.74 195.88 363.61 174.12 373.61 177.24 367.16 170.91 374.25 168.33 374.57 167.9 368.13 191.92 339.11 180.18 350.07 181.54 335.24 188.03 318.48 180.85 332.66 180.58 316.22 177.93 350.72 172.88 357.49 172.09 348.78 169.37 359.42 167.19 363.93 168.54 328.79 176.05 314.93 168.12 322.99 166.56 306.55" style="fill:#b2b2b2"></polygon><path d="M470,356.44c0,27.54-18.94,38.17-42.29,38.17s-42.3-10.63-42.3-38.17,18.94-89.36,42.3-89.36S470,328.89,470,356.44Z" style="fill:#108404"></path><path d="M470,356.44c0,27.54-18.94,38.17-42.29,38.17s-42.3-10.63-42.3-38.17,18.94-89.36,42.3-89.36S470,328.89,470,356.44Z" style="fill:#fff;opacity:0.23"></path><polygon points="426.85 306.55 425.41 336.21 409.26 315.25 424.49 339.11 424.36 350.72 413.3 344.91 414.11 335.56 411.35 343.62 400.28 337.5 424.1 354.58 423.63 364.9 394.45 354.91 408.43 362 393.05 367.8 410.7 362.97 423.37 368.77 420.65 457.43 430.32 457.43 428.39 379.73 445 370.7 453.45 374.9 447.57 369.74 456.17 363.61 434.41 373.61 437.53 367.16 431.2 374.25 428.63 374.57 428.19 368.13 452.22 339.11 440.47 350.07 441.83 335.24 448.33 318.48 441.15 332.66 440.87 316.22 438.22 350.72 433.18 357.49 432.39 348.78 429.66 359.42 427.48 363.93 428.83 328.79 436.34 314.93 428.41 322.99 426.85 306.55" style="fill:#b2b2b2"></polygon><path d="M448.14,179.39c0,47.27-32.49,65.5-72.57,65.5S303,226.66,303,179.39,335.49,26.06,375.57,26.06,448.14,132.12,448.14,179.39Z" style="fill:#108404"></path><path d="M448.14,179.39c0,47.27-32.49,65.5-72.57,65.5S303,226.66,303,179.39,335.49,26.06,375.57,26.06,448.14,132.12,448.14,179.39Z" style="fill:#fff;opacity:0.5"></path><polygon points="374.06 93.79 371.58 144.68 343.88 108.72 370 149.66 369.78 169.58 350.81 159.62 352.2 143.58 347.45 157.41 328.47 146.9 369.34 176.22 368.53 193.92 318.45 176.77 342.44 188.94 316.05 198.9 346.34 190.6 368.08 200.56 363.42 457.43 380.01 457.43 376.69 219.37 405.2 203.88 419.71 211.07 409.6 202.22 424.36 191.71 387.03 208.86 392.38 197.79 381.52 209.96 377.1 210.52 376.36 199.45 417.58 149.66 397.42 168.47 399.77 143.02 410.91 114.25 398.59 138.6 398.12 110.38 393.57 169.58 384.91 181.19 383.56 166.26 378.88 184.51 375.14 192.26 377.45 131.96 390.34 108.17 376.74 122 374.06 93.79" style="fill:#b2b2b2"></polygon><path d="M174,265.17c0,52.44-36,72.66-80.51,72.66S13,317.61,13,265.17,49.05,95.06,93.51,95.06,174,212.72,174,265.17Z" style="fill:#108404"></path><path d="M174,265.17c0,52.44-36,72.66-80.51,72.66S13,317.61,13,265.17,49.05,95.06,93.51,95.06,174,212.72,174,265.17Z" style="fill:#fff;opacity:0.5"></path><polygon points="91.83 170.19 89.08 226.66 58.35 186.77 87.33 232.18 87.08 254.28 66.03 243.23 67.58 225.43 62.31 240.78 41.25 229.12 86.59 261.64 85.69 281.28 30.14 262.26 56.76 275.76 27.48 286.81 61.08 277.6 85.2 288.65 80.02 457.43 98.44 457.43 94.75 309.51 126.38 292.33 142.47 300.31 131.26 290.49 147.64 278.83 106.22 297.85 112.16 285.58 100.1 299.08 95.2 299.7 94.39 287.42 140.11 232.18 117.75 253.05 120.35 224.82 132.71 192.9 119.04 219.91 118.52 188.61 113.48 254.28 103.87 267.17 102.37 250.6 97.18 270.85 93.03 279.44 95.6 212.54 109.89 186.15 94.8 201.5 91.83 170.19" style="fill:gray"></polygon></g><g id="freepik--Streetlight--inject-4"><polygon points="442.77 451.33 432.93 451.33 434.4 201.53 441.29 201.53 442.77 451.33" style="fill:#263238"></polygon><polygon points="445.52 200.32 429.54 200.32 427.54 176.84 447.52 176.84 445.52 200.32" style="fill:#263238"></polygon><polygon points="443.74 200.32 431.32 200.32 429.77 176.84 445.29 176.84 443.74 200.32" style="fill:#fff"></polygon><rect x="425.98" y="174.68" width="23.23" height="3.91" style="fill:#263238"></rect><rect x="427.8" y="197.77" width="19.57" height="4.83" style="fill:#263238"></rect><rect x="429.11" y="172.07" width="16.7" height="2.61" style="fill:#263238"></rect><rect x="435.65" y="168.18" width="2.87" height="3.91" style="fill:#263238"></rect><rect x="429.38" y="436.4" width="17.32" height="21.02" style="fill:#263238"></rect></g><g id="freepik--Bench--inject-4"><path d="M356.82,394.29a3.24,3.24,0,0,1-3.15-2.49c-.75-3.18-.41-5.83,1-7.9a7.78,7.78,0,0,1,5.12-3.16,2.83,2.83,0,0,1,.41,0h53.36a3.24,3.24,0,0,1,0,6.48h-53a1.11,1.11,0,0,0-.58.43c-.15.23-.44.94,0,2.68s.58,3.48-1.16,3.9C358.56,394.26,357.07,394.29,356.82,394.29Z" style="fill:#fff;stroke:#263238;stroke-linecap:round;stroke-linejoin:round"></path><path d="M359,394.29a3.24,3.24,0,0,1-3.15-2.49c-.75-3.18-.41-5.83,1-7.9a7.78,7.78,0,0,1,5.12-3.16,2.83,2.83,0,0,1,.41,0h53.36a3.24,3.24,0,0,1,0,6.48h-53a1.11,1.11,0,0,0-.58.43c-.15.23-.44.94,0,2.68a3.24,3.24,0,0,1-2.4,3.9A3.2,3.2,0,0,1,359,394.29Z" style="fill:#263238"></path><line x1="382.77" y1="410.25" x2="386.63" y2="385.19" style="fill:none;stroke:#263238;stroke-linecap:round;stroke-linejoin:round;stroke-width:4px"></line><path d="M455.14,457.43h4.11l-8-45.16,16.06-57.73-3.83-1.07-16.2,58.24a2,2,0,0,0,0,1Z" style="fill:#263238;stroke:#263238;stroke-linecap:round;stroke-linejoin:round"></path><path d="M399.41,457.43l6.73-43.2h43.07v-4H404.55a2,2,0,0,0-1.94,1.56l-7.28,45.62Z" style="fill:#263238;stroke:#263238;stroke-linecap:round;stroke-linejoin:round"></path><path d="M358,457.43l6.74-43.2H407.8v-4H363.14a2,2,0,0,0-1.95,1.56l-7.28,45.62Z" style="fill:#263238;stroke:#263238;stroke-linecap:round;stroke-linejoin:round"></path><path d="M413.73,457.43h4.1l-8-45.16,16.06-57.73-3.83-1.07-16.21,58.24a2.07,2.07,0,0,0,0,1Z" style="fill:#263238;stroke:#263238;stroke-linecap:round;stroke-linejoin:round"></path><polygon points="417.16 358.57 471.82 358.57 474 350.94 419.34 350.94 417.16 358.57" style="fill:#263238;stroke:#263238;stroke-linecap:round;stroke-linejoin:round"></polygon><polygon points="413.77 370.4 468.43 370.4 470.62 362.77 415.95 362.77 413.77 370.4" style="fill:#263238;stroke:#263238;stroke-linecap:round;stroke-linejoin:round"></polygon><polygon points="410.38 382.22 465.05 382.22 467.23 374.59 412.57 374.59 410.38 382.22" style="fill:#263238;stroke:#263238;stroke-linecap:round;stroke-linejoin:round"></polygon><polygon points="407 394.04 461.66 394.04 463.85 386.42 409.18 386.42 407 394.04" style="fill:#263238;stroke:#263238;stroke-linecap:round;stroke-linejoin:round"></polygon><polygon points="403.61 405.87 458.28 405.87 460.46 398.24 405.8 398.24 403.61 405.87" style="fill:#263238;stroke:#263238;stroke-linecap:round;stroke-linejoin:round"></polygon><polygon points="414.6 358.57 469.26 358.57 471.44 350.94 416.78 350.94 414.6 358.57" style="fill:#fff;stroke:#263238;stroke-linecap:round;stroke-linejoin:round"></polygon><polygon points="411.21 370.4 465.87 370.4 468.06 362.77 413.39 362.77 411.21 370.4" style="fill:#fff;stroke:#263238;stroke-linecap:round;stroke-linejoin:round"></polygon><polygon points="407.82 382.22 462.49 382.22 464.67 374.59 410.01 374.59 407.82 382.22" style="fill:#fff;stroke:#263238;stroke-linecap:round;stroke-linejoin:round"></polygon><polygon points="404.44 394.04 459.1 394.04 461.29 386.42 406.62 386.42 404.44 394.04" style="fill:#fff;stroke:#263238;stroke-linecap:round;stroke-linejoin:round"></polygon><polygon points="401.06 405.87 455.72 405.87 457.9 398.24 403.24 398.24 401.06 405.87" style="fill:#fff;stroke:#263238;stroke-linecap:round;stroke-linejoin:round"></polygon><rect x="359.63" y="409.62" width="96.19" height="4.38" style="fill:#fff;stroke:#263238;stroke-linecap:round;stroke-linejoin:round"></rect><rect x="404.2" y="409.62" width="51.62" height="4.38" style="fill:#263238;stroke:#263238;stroke-linecap:round;stroke-linejoin:round"></rect><line x1="423.62" y1="410.25" x2="427.49" y2="385.19" style="fill:none;stroke:#263238;stroke-linecap:round;stroke-linejoin:round;stroke-width:4px"></line><path d="M404.63,394.29a3.23,3.23,0,0,1-3.14-2.49c-.76-3.18-.41-5.83,1-7.9a7.76,7.76,0,0,1,5.12-3.16,2.69,2.69,0,0,1,.4,0H461.4a3.24,3.24,0,0,1,0,6.48h-53a1.17,1.17,0,0,0-.59.43c-.14.23-.43.94,0,2.68s.95,3.48-.79,3.9C406.75,394.26,404.88,394.29,404.63,394.29Z" style="fill:#fff;stroke:#263238;stroke-linecap:round;stroke-linejoin:round"></path><path d="M407.1,394.29A3.25,3.25,0,0,1,404,391.8c-.75-3.18-.41-5.83,1-7.9a7.76,7.76,0,0,1,5.12-3.16,2.69,2.69,0,0,1,.4,0h53.37a3.24,3.24,0,0,1,0,6.48h-53a1.13,1.13,0,0,0-.59.43c-.14.23-.44.94,0,2.68a3.24,3.24,0,0,1-2.4,3.9A3.35,3.35,0,0,1,407.1,394.29Z" style="fill:#263238;stroke:#263238;stroke-linecap:round;stroke-linejoin:round"></path></g><g id="freepik--character-2--inject-4"><path d="M285.37,294.05s3.12.78,9,2.73a36.44,36.44,0,0,0,12.09,1.55s2.33-1,2.53-.39a28,28,0,0,1-.2,4.29h-11.3c-1.75,0-14.12,2.68-18.31.59-3.9-1.95-3.32-4.29-1.56-7.41s6.43-2,6.43-2Z" style="fill:none;stroke:#263238;stroke-linecap:round;stroke-linejoin:round"></path><path d="M328.6,439.61s-2.06,1.53-2.06,3.08a11.24,11.24,0,0,0,1,3.68s-2.52,7-1.36,8.9S334.67,458,336,457s.58-6,1-6.77,1.16-1,1.16-5.23-1.16-7-3.09-6.19S328.6,439.61,328.6,439.61Z" style="fill:#fff;stroke:#263238;stroke-linecap:round;stroke-linejoin:round"></path><path d="M338.15,445a11.62,11.62,0,0,0-.91-5.16,8.27,8.27,0,0,0-.05.9c0,4.45-.78,8.71-.2,9.49C337.38,449.46,338.15,449.27,338.15,445Z" style="fill:#108404;stroke:#263238;stroke-linecap:round;stroke-linejoin:round"></path><path d="M336,457c.91-.64.86-3.09.85-4.88-.52,1.58-1.88,3.53-4.14,3.53a19.21,19.21,0,0,1-6.87-1.74,2.85,2.85,0,0,0,.29,1.35C327.31,457.21,334.67,458,336,457Z" style="fill:#108404;stroke:#263238;stroke-linecap:round;stroke-linejoin:round"></path><path d="M323.88,348.07s-1.17,30.13-.05,33.77a38.17,38.17,0,0,1,1.4,7.29s-2.24,20.47-.56,26.92a202.4,202.4,0,0,1,3.93,23.56c0,2-1.41,4.76,1.12,5.6s3.64,1.13,4.48-.84,3.65-21.87,4.49-26.35a118.5,118.5,0,0,0,2.24-21.59,57.65,57.65,0,0,0-1.4-14A151.34,151.34,0,0,1,344,363.34c2.8-8.69,2.8-13.74,2.8-13.74Z" style="fill:#fff;stroke:#263238;stroke-linecap:round;stroke-linejoin:round"></path><path d="M346.82,349.61l-.16,0-22.78-1.52s-1.17,30.13-.05,33.77c.19.62.35,1.23.49,1.82L346.63,352C346.81,350.48,346.82,349.64,346.82,349.61Z" style="fill:#263238;stroke:#263238;stroke-linecap:round;stroke-linejoin:round"></path><path d="M300,346s2,15.43,4.76,24.68a71.86,71.86,0,0,1,3.09,16.26s-5.61,7.85-3.93,14,5.61,21.31,5.61,22.43.84,7.57.84,7.57l5.05-3.36s2.8-15.42,4.76-25a68.42,68.42,0,0,0,1.13-18.22s.56-14.3,1.12-18.51,1.4-13.46,1.4-13.46,1.12-8.13,1.12-10.65-14-5.89-18.79-2.81A15.68,15.68,0,0,0,300,346Z" style="fill:#fff;stroke:#263238;stroke-linecap:round;stroke-linejoin:round"></path><path d="M307.85,386.89a6.8,6.8,0,0,1,7.85-1.4" style="fill:none;stroke:#263238;stroke-linecap:round;stroke-linejoin:round"></path><path d="M277.38,299.7c-1-2.34-.19-4.68,1.17-7.41s9.16-12.86,9.74-14,4.49-7.79,7.6-10.52,7.21-2.34,11.3-3.5,10.14-3.32,11.5-5.07,1.17-6.63,1.17-6.63h9.55s2.14,8.38,3.11,9.36,8.19,2.92,11.5,3.5,4.87,8.38,2.53,14S339,299.31,339,301.26s5.45,11.88,8.18,21,2.73,23,2.73,25.92a33.24,33.24,0,0,1-.2,4.28s-4.28,1.76-5.65,2.34-15.39,1.36-17.73.78a12,12,0,0,1-2.48-.72s.34-6.29-3.76-8.44-10.91-3.51-15.58-1a12.44,12.44,0,0,0-4.35,4.67s-4.42-7.21-4.23-13.05,1.56-18.71,4.1-24.36,6.43-14.42,6.43-14.42l-4.88-15.58-1-1.95s-5.65,6.43-9.35,9.74a100.05,100.05,0,0,0-8,8.38l-3.51,1.75" style="fill:#fff;stroke:#263238;stroke-linecap:round;stroke-linejoin:round"></path><line x1="300.57" y1="280.8" x2="298.16" y2="276.36" style="fill:none;stroke:#263238;stroke-linecap:round;stroke-linejoin:round"></line><path d="M344.73,315.47c-3.59,0-13.63-.15-26.62-.77a82.69,82.69,0,0,0-19.17,1c-1.86,6.37-2.88,16.43-3.05,21.41-.19,5.84,4.23,13.05,4.23,13.05a12.44,12.44,0,0,1,4.35-4.67c4.67-2.54,11.49-1.17,15.58,1s3.76,8.44,3.76,8.44a12,12,0,0,0,2.48.72c2.34.58,16.37-.19,17.73-.78s5.65-2.34,5.65-2.34a33.24,33.24,0,0,0,.2-4.28c0-2.93,0-16.76-2.73-25.92C346.46,320,345.62,317.71,344.73,315.47Z" style="fill:#263238;stroke:#263238;stroke-linecap:round;stroke-linejoin:round"></path><path d="M315.14,337.26a19.6,19.6,0,0,1,8.74,10.81" style="fill:none;stroke:#fff;stroke-linecap:round;stroke-linejoin:round"></path><path d="M345.71,318c-2.86-7.77-6.75-15.14-6.75-16.78s3.11-10.27,5.61-16.81c-2.29,0-6.35-.85-9.51-5.6a16.69,16.69,0,0,1-1-16.15,5.65,5.65,0,0,1-1.55-.8,6.39,6.39,0,0,1-.85-1.77,53,53,0,0,1-14.15,0,21.15,21.15,0,0,1-2.88,1.48,12.79,12.79,0,0,1,.93,11.95c-2.16,5-9.31,9-13.47,10.94l4.32,13.8s-3.9,8.77-6.43,14.42a30.4,30.4,0,0,0-1.71,5.49,113.77,113.77,0,0,1,19.44-1C327.39,317.72,338.92,318.87,345.71,318Z" style="fill:#108404;stroke:#263238;stroke-linecap:round;stroke-linejoin:round"></path><path d="M315.68,299a56.86,56.86,0,0,1,13.5.51" style="fill:none;stroke:#263238;stroke-linecap:round;stroke-linejoin:round"></path><path d="M326.45,300.56c-5-.23-11.86-.3-14.15.85" style="fill:none;stroke:#263238;stroke-linecap:round;stroke-linejoin:round"></path><path d="M331.88,300.9s-.89-.08-2.3-.17" style="fill:none;stroke:#263238;stroke-linecap:round;stroke-linejoin:round"></path><path d="M320.8,303.71a30.52,30.52,0,0,1,8,.4" style="fill:none;stroke:#263238;stroke-linecap:round;stroke-linejoin:round"></path><path d="M316,304.27s.9-.16,2.3-.33" style="fill:none;stroke:#263238;stroke-linecap:round;stroke-linejoin:round"></path><path d="M342.76,274.66s0,4.11,2.12,6.47,5,7.63,7.35,13.08A36.49,36.49,0,0,0,354,298a25.53,25.53,0,0,0,.49,8c1.37,4.57,0,7.23,0,7.23L351,314s-1.18,2.25-.9,3.21,2.63,5.64,4,6.11,3.45-.89,3.91-2.3-.13-3.9.74-5.14,4.63-9.79,5.13-13.16-.48-7.78-.58-8.94-4.7-9.18-5.28-11.48-4.25-10.78-6-13.37-7.79-4.22-11-2.77" style="fill:#fff;stroke:#263238;stroke-linecap:round;stroke-linejoin:round"></path><path d="M354,298s3.12,2.45,5.55,2.18" style="fill:none;stroke:#263238;stroke-linecap:round;stroke-linejoin:round"></path><path d="M350.22,316.07s2.12,4.12,3,3.65S353,317,353,317" style="fill:none;stroke:#263238;stroke-linecap:round;stroke-linejoin:round"></path><path d="M355.47,315.62s-1.32,2.85-1.06,3.61a4.16,4.16,0,0,0,1.1,1.47,1.31,1.31,0,0,1,1.3.59c.46.74-.53,1.49-.53,1.49" style="fill:none;stroke:#263238;stroke-linecap:round;stroke-linejoin:round"></path><path d="M352.62,321.91c-.13-1.52,1.79-2.68,1.79-2.68l1.1,1.47a7.71,7.71,0,0,0-.74,2.46" style="fill:none;stroke:#263238;stroke-linecap:round;stroke-linejoin:round"></path><path d="M336,241.79s2-1.83,2,.21a21.78,21.78,0,0,1-1.22,6.11c-.41,1-2.24,1.42-2.24,1.42Z" style="fill:#fff;stroke:#263238;stroke-linecap:round;stroke-linejoin:round"></path><path d="M313.26,242s-2-1.84-2,.2a21.35,21.35,0,0,0,1.22,6.11c.41,1,2.24,1.43,2.24,1.43Z" style="fill:#fff;stroke:#263238;stroke-linecap:round;stroke-linejoin:round"></path><path d="M325.51,228.59A13,13,0,0,0,315,232.78c-4.87,5-2.14,10.9-.78,14.89s5.65,8.59,10.33,8.38a11.68,11.68,0,0,0,10.52-7.54c1.56-4.41.39-12.58.39-12.58s1.75-2.31-.78-6.08S325.12,224.61,325.51,228.59Z" style="fill:#263238;stroke:#263238;stroke-linecap:round;stroke-linejoin:round"></path><path d="M322.62,238s-3.12,2.73-12.28.78-20.65-1.56-26.11,5.46-2.34,15.58,1.17,17.53,3.7-.39,4.29-3.7,5.45-8.38,5.45-6,1,8.18,6.82,4.48,6.82-10.33,10.72-11.88,3.7-.59,7-.2S325.34,237.56,322.62,238Z" style="fill:#263238;stroke:#263238;stroke-linecap:round;stroke-linejoin:round"></path><path d="M317.38,423.62s-5.61-.84-7.85,3.93a33.39,33.39,0,0,0-2.52,16c.56,3.93,2.52,12.06,5.6,13.46s7.29-7,7.29-11.22-1.68-7.85-1.4-10.37S322.71,426.43,317.38,423.62Z" style="fill:#108404;stroke:#263238;stroke-linecap:round;stroke-linejoin:round"></path><line x1="310.29" y1="426.07" x2="319.81" y2="427.17" style="fill:none;stroke:#263238;stroke-linecap:round;stroke-linejoin:round"></line><line x1="308.52" y1="430.27" x2="319.14" y2="431.82" style="fill:none;stroke:#263238;stroke-linecap:round;stroke-linejoin:round"></line><line x1="307.85" y1="434.7" x2="318.48" y2="436.69" style="fill:none;stroke:#263238;stroke-linecap:round;stroke-linejoin:round"></line><line x1="307.19" y1="439.35" x2="318.92" y2="440.68" style="fill:none;stroke:#263238;stroke-linecap:round;stroke-linejoin:round"></line><line x1="307.41" y1="444.44" x2="319.81" y2="445.1" style="fill:none;stroke:#263238;stroke-linecap:round;stroke-linejoin:round"></line><line x1="308.3" y1="448.87" x2="319.14" y2="449.31" style="fill:none;stroke:#263238;stroke-linecap:round;stroke-linejoin:round"></line><line x1="309.85" y1="453.52" x2="317.15" y2="453.29" style="fill:none;stroke:#263238;stroke-linecap:round;stroke-linejoin:round"></line></g><g id="freepik--Dog--inject-4"><path d="M256.19,387.71s1.61,11.78,4.56,18.73,6.58,20.81,6.53,24.13-7.62,15.82-10.23,19.1-6.22,5.27-5.22,6.82,4.34.33,5.89-.93,6.24-8.31,8.07-10.58,7.53-8.69,9.41-14.28-1.36-11-.24-17.39,6.66-17,6.66-17,4-10.93-6.94-13.66S256.19,387.71,256.19,387.71Z" style="fill:#fff;stroke:#263238;stroke-linecap:round;stroke-linejoin:round"></path><path d="M274.68,382.63c-10.95-2.73-18.49,5.08-18.49,5.08A114.67,114.67,0,0,0,259,401.15a102.47,102.47,0,0,1,15.77,8.56c.32.21.65.41,1,.6a98.57,98.57,0,0,1,5.92-14S285.63,385.36,274.68,382.63Z" style="fill:#263238;stroke:#263238;stroke-linecap:round;stroke-linejoin:round"></path><path d="M218.5,411.4s7.27,25.16,8.23,29.52.37,10.47-1.18,11.47-6.16,1.69-5.17,3.75,6.89.62,7.67-.14,4.8-14.21,4.85-17.28-5.14-14.9-4.54-20.26,4.38-18.59,4.91-19.61-7.81-7.53-12.75-2S218.5,411.4,218.5,411.4Z" style="fill:#fff;stroke:#263238;stroke-linecap:round;stroke-linejoin:round"></path><path d="M220.52,396.86c-5,5.55-2,14.54-2,14.54s.79,2.73,1.88,6.54a25.76,25.76,0,0,1,8.28-6.6l1.24-.61c1.32-5.45,3-11.22,3.37-11.88C233.8,397.84,225.46,391.32,220.52,396.86Z" style="fill:#263238;stroke:#263238;stroke-linecap:round;stroke-linejoin:round"></path><path d="M195.11,338.69s1.55-1.51-.39-7.93-2.93-8.48-3-6.43a62.06,62.06,0,0,1-.4,9.19c-.59,5.11-.09,5.88,1.69,6.42A1.53,1.53,0,0,0,195.11,338.69Z" style="fill:#263238;stroke:#263238;stroke-linecap:round;stroke-linejoin:round"></path><path d="M297.05,373.78s7,8.8,10.78,13.46,9.27,11.91,20.21,15.4,15.3,2.54,14.77,3.82c-1.16,2.69-17.1-3.19-19.2-4.13-11.09-4.93-18.25-12.9-26.93-20.89" style="fill:#263238;stroke:#263238;stroke-linecap:round;stroke-linejoin:round"></path><path d="M313.5,455.85c-2.08,2-6.67,1.43-7.15-.37s1.3-1.76,2.6-2.77,1.3-7.4,1.34-10.22-6.37-17.48-9.92-19.07-13.19-7.1-18.47-12.55S271.22,391,271.22,391a39.9,39.9,0,0,0-11-.68c-6.65.4-15.2,7.43-21.13,10.91s-14.05-.73-14.83.28-1.43,10-2,11.22-9.86,9-13.5,12.57-9.33,8.29-9.36,10.33-.11,7.15.88,9.22,2.74,4.39,2.44,7.19-2.37,4.82-4.16,4.53-2.94-8.22-2.87-12.56-1.15-8.21-1.11-10.5,6-6.81,9.65-12.38,3.45-7.61,3.45-7.61-1.09-12.29-3.32-17.18-6.61-18-7.07-21.58-12.7-21.42-12.7-21.42a9.09,9.09,0,0,0-3-1.32,83.51,83.51,0,0,0-9.23,1.64c-1.8.48-5.14,2-5.37-.08s3.1-2.25,4.64-2.23,3.58-.45,3.6-1.48-6.65.15-7.41.14-4.86-.84-5.34-1.87-1.94-6.93-1.65-9.23,2.32-1.75,3.35-1.73,10-.87,10-.87l.27-.76c.16-.48,2.64-2.39,5-3.69a8.59,8.59,0,0,1,3.51-1.29c2.29,0,10.9,5,10.9,5s3,3.88,4.52,5.69a36.78,36.78,0,0,0,21.78,12.61c13,2.25,21.43,2.39,29.39.46s15.9-3.32,24.31-1.91,22.24,16.2,23.18,21.32,1,15.36.88,25.83,4.88,16.32,7.19,19.78c2.08,3.1,10.18,13.72,9.86,17.56S315.57,453.84,313.5,455.85Z" style="fill:#fff;stroke:#263238;stroke-linecap:round;stroke-linejoin:round"></path><path d="M187.42,323.24l.91,7.68s-2.12,4.57-1.91,7.38,3.75,5.17,5.58,2.65.17-10.48-1.29-15.36S187.48,319.4,187.42,323.24Z" style="fill:#263238;stroke:#263238;stroke-linecap:round;stroke-linejoin:round"></path><path d="M181.54,339.76c-.85,5.61-5.7,5-7,3.46s-.4-6.9-.4-6.9l.27-.76c.16-.48,2.64-2.39,5-3.69A9.64,9.64,0,0,1,181.54,339.76Z" style="fill:#263238;stroke:#263238;stroke-linecap:round;stroke-linejoin:round"></path><path d="M176.79,337.53c-.16.74-.59,1.27-1,1.19s-.54-.75-.38-1.49.6-1.27,1-1.19S177,336.79,176.79,337.53Z" style="fill:#fff"></path><path d="M164.2,337.19,161.55,343a5.5,5.5,0,0,1-.7-4.1C161.4,336.63,163.17,337.18,164.2,337.19Z" style="fill:#263238;stroke:#263238;stroke-linecap:round;stroke-linejoin:round"></path><path d="M188.44,359l1.18,1.82,15.53-13.26c-.68-.49-1.3-1-1.87-1.44Z" style="fill:#108404;stroke:#263238;stroke-linecap:round;stroke-linejoin:round"></path><path d="M230.4,366.55c0,2.56-3.29,4.59-7.26,4.53s-7.16-2.19-7.12-4.75,3.29-4.59,7.26-4.53S230.44,364,230.4,366.55Z" style="fill:#263238;stroke:#263238;stroke-linecap:round;stroke-linejoin:round"></path><path d="M245,362.49c0,.44-1.37.78-3.05.75s-3-.41-3-.85,1.38-.77,3.05-.75S245,362.05,245,362.49Z" style="fill:#263238;stroke:#263238;stroke-linecap:round;stroke-linejoin:round"></path><path d="M240.06,372.48c0,1.24-1.32,2.22-2.91,2.2s-2.86-1.05-2.84-2.29,1.32-2.21,2.91-2.19S240.08,371.25,240.06,372.48Z" style="fill:#263238;stroke:#263238;stroke-linecap:round;stroke-linejoin:round"></path><path d="M260.2,373a3.37,3.37,0,1,1-3.31-3.09A3.2,3.2,0,0,1,260.2,373Z" style="fill:#263238;stroke:#263238;stroke-linecap:round;stroke-linejoin:round"></path><path d="M267.44,360c0,.8-1.24,1.42-2.74,1.4s-2.7-.69-2.69-1.48,1.24-1.42,2.74-1.4S267.46,359.17,267.44,360Z" style="fill:#263238;stroke:#263238;stroke-linecap:round;stroke-linejoin:round"></path><path d="M286.26,362.82a3.52,3.52,0,1,1-3.46-3.41A3.43,3.43,0,0,1,286.26,362.82Z" style="fill:#263238;stroke:#263238;stroke-linecap:round;stroke-linejoin:round"></path><path d="M277.1,376.42a2.25,2.25,0,1,1-2.2-2.43A2.33,2.33,0,0,1,277.1,376.42Z" style="fill:#263238;stroke:#263238;stroke-linecap:round;stroke-linejoin:round"></path><path d="M290.8,379.2c0,.79-1.24,1.42-2.74,1.39s-2.7-.68-2.69-1.48,1.24-1.42,2.74-1.39S290.82,378.4,290.8,379.2Z" style="fill:#263238;stroke:#263238;stroke-linecap:round;stroke-linejoin:round"></path><path d="M261.32,383.21c0,.44-.51.79-1.13.78s-1.11-.37-1.11-.81.52-.8,1.14-.79S261.33,382.77,261.32,383.21Z" style="fill:#263238;stroke:#263238;stroke-linecap:round;stroke-linejoin:round"></path><path d="M223,377.49c0,.44-1.16.78-2.57.76s-2.55-.4-2.55-.84,1.16-.78,2.57-.76S223,377.05,223,377.49Z" style="fill:#263238;stroke:#263238;stroke-linecap:round;stroke-linejoin:round"></path><path d="M237.67,382.52c0,.62-.88,1.1-1.94,1.09s-1.91-.53-1.9-1.15.88-1.11,1.94-1.09S237.68,381.9,237.67,382.52Z" style="fill:#263238;stroke:#263238;stroke-linecap:round;stroke-linejoin:round"></path><path d="M208.33,356.8a1.47,1.47,0,1,1-1.41-1.79A1.61,1.61,0,0,1,208.33,356.8Z" style="fill:#263238;stroke:#263238;stroke-linecap:round;stroke-linejoin:round"></path><path d="M217.91,357.75c0,.7-.95,1.26-2.1,1.24s-2.06-.6-2.05-1.31,1-1.26,2.09-1.25S217.92,357,217.91,357.75Z" style="fill:#263238;stroke:#263238;stroke-linecap:round;stroke-linejoin:round"></path><path d="M195.38,346.68c0,.79-.38,1.43-.82,1.42s-.79-.65-.78-1.45.38-1.43.83-1.42S195.39,345.88,195.38,346.68Z" style="fill:#263238;stroke:#263238;stroke-linecap:round;stroke-linejoin:round"></path><path d="M186.44,345.74c0,.18-.36.31-.8.31s-.8-.16-.8-.34.37-.31.81-.3S186.45,345.56,186.44,345.74Z" style="fill:#263238;stroke:#263238;stroke-linecap:round;stroke-linejoin:round"></path><path d="M221.58,389.14c0,.18-.73.31-1.61.3s-1.59-.17-1.59-.35.72-.31,1.6-.29S221.58,389,221.58,389.14Z" style="fill:#263238;stroke:#263238;stroke-linecap:round;stroke-linejoin:round"></path><path d="M285.46,393.82c0,.45-.59.79-1.29.78s-1.28-.38-1.27-.82.59-.79,1.29-.78S285.46,393.38,285.46,393.82Z" style="fill:#263238;stroke:#263238;stroke-linecap:round;stroke-linejoin:round"></path><path d="M291.94,408.8c0,.88-1.1,1.58-2.43,1.56s-2.38-.76-2.37-1.64,1.1-1.58,2.42-1.56S292,407.91,291.94,408.8Z" style="fill:#263238;stroke:#263238;stroke-linecap:round;stroke-linejoin:round"></path><path d="M216.9,401.7c0,.62-1,1.1-2.25,1.08s-2.23-.53-2.22-1.15,1-1.1,2.25-1.09S216.91,401.08,216.9,401.7Z" style="fill:#263238;stroke:#263238;stroke-linecap:round;stroke-linejoin:round"></path><path d="M207.88,385.41c0,.17-.43.31-1,.3s-1-.16-.95-.33.43-.31,1-.31S207.89,385.23,207.88,385.41Z" style="fill:#263238;stroke:#263238;stroke-linecap:round;stroke-linejoin:round"></path></g><g id="freepik--character-1--inject-4"><path d="M95.38,296.88s1.19,40.54,1.78,50.38,3.58,18.19,3.58,24.45-4.47,16.7-3.28,27.13,6.26,30.11,6.86,34.29-.89,7.45,1.19,9.54,10.14,1.49,12.23,0,2.68-3.88,2.68-7.16-.89-11-.89-13.11,1.78-31,1.78-37.27a117.59,117.59,0,0,1,.9-13.12s1.19-8.65,1.19-12.23,1.79-29.51,1.79-29.51,0,37.27,1.19,44.42,2.69,17,2.69,20.87.89,23.85.89,28-2.68,12.22-2.68,13.71,0,11.33.89,11.63,4.18-2.38,6.26-3.28,9.54,0,9.54,0,1.49-1.19,1.49-4.17-.29-6-.29-8.35,1.79-11.33,2.38-17.59,2.39-21.17,2.68-31-.29-12.82-.29-17.59,3-44.72,3-44.72a46.49,46.49,0,0,1,0-6.56c.3-1.49.59-6,.59-6l-2.08-17.6s-26.84.9-34.59.6-20,0-20,0Z" style="fill:#263238;stroke:#263238;stroke-linecap:round;stroke-linejoin:round"></path><line x1="101.93" y1="373.5" x2="105.21" y2="363.36" style="fill:none;stroke:#fff;stroke-linecap:round;stroke-linejoin:round"></line><path d="M110.88,370.22s-5.37,18.19-5.67,19.38" style="fill:none;stroke:#fff;stroke-linecap:round;stroke-linejoin:round"></path><line x1="107.3" y1="372.31" x2="101.34" y2="388.7" style="fill:none;stroke:#fff;stroke-linecap:round;stroke-linejoin:round"></line><path d="M122.21,372a82.82,82.82,0,0,0-4.18,8.64" style="fill:none;stroke:#fff;stroke-linecap:round;stroke-linejoin:round"></path><path d="M128.47,383.34s7.75,3.28,11.33,3.28" style="fill:none;stroke:#fff;stroke-linecap:round;stroke-linejoin:round"></path><path d="M146.36,387.51A19.12,19.12,0,0,1,138,388.7" style="fill:none;stroke:#fff;stroke-linecap:round;stroke-linejoin:round"></path><path d="M133.54,389.6a17.29,17.29,0,0,0,11,2.68" style="fill:none;stroke:#fff;stroke-linecap:round;stroke-linejoin:round"></path><path d="M130.26,434.62s10.14-.3,8.65,1.19-9.55,3.88-8.35,3.28a23.33,23.33,0,0,0,3.28-2.38" style="fill:none;stroke:#fff;stroke-linecap:round;stroke-linejoin:round"></path><path d="M113.26,423.59s-6.85,10.14-6,10.73,8.65-6,8.65-6" style="fill:none;stroke:#fff;stroke-linecap:round;stroke-linejoin:round"></path><path d="M119.53,441.78s-5.07-7.16-8.65-6.27-5.67,5.37-5.67,5.37l-3,4.47c-.59.9-6-.29-6.56,4.18s3.58,5.36,11.63,6.85,13.12.3,13.12-1.78v-7.76S120.12,445.06,119.53,441.78Z" style="fill:#fff;stroke:#263238;stroke-linecap:round;stroke-linejoin:round"></path><path d="M120.42,454.6c-1.79.29-3-.9-4.17-2.09s-4.18-3.88-11.93-3.88c-6.55,0-8.2,2.13-8.55,2.79.76,2.87,4.78,3.71,11.53,5C115.35,457.88,120.42,456.68,120.42,454.6Z" style="fill:#263238;stroke:#263238;stroke-linecap:round;stroke-linejoin:round"></path><path d="M101.64,445.65s6.56-1.34,11.33,1.94" style="fill:none;stroke:#263238;stroke-linecap:round;stroke-linejoin:round"></path><path d="M143.38,445.2a39.89,39.89,0,0,0,1.79,4.18c.74,1.34,3.28,2.68,3.13,4.62s-3.58,3.43-8.2,3.43a19.09,19.09,0,0,1-9.39-2.39c-.75-.59-1.2-3.13-1.64-4.17s-1-2.54-1-2.54,5.67-5.81,8.95-6.41S143.38,445.2,143.38,445.2Z" style="fill:#fff;stroke:#263238;stroke-linecap:round;stroke-linejoin:round"></path><path d="M148.3,454a2.87,2.87,0,0,0-.73-2c-.14.4-.29.81-.47,1.21-.89,2.09-5.66,3.58-10.88,2.39a11,11,0,0,1-7.15-4.77c.44,1,.89,3.58,1.64,4.17a19.09,19.09,0,0,0,9.39,2.39C144.72,457.43,148.15,455.94,148.3,454Z" style="fill:#fff;stroke:#263238;stroke-linecap:round;stroke-linejoin:round"></path><path d="M139.28,230.39s-4.25-6.26-13.87-6.49-13.86,1.57-15.43,6.26-.89,19.68-.44,20.8,3.13,47,3.13,47a74.45,74.45,0,0,0,13.64.67c6-.45,8.5-2.46,8.5-2.46s4-46.51,4-48.52S139.28,230.39,139.28,230.39Z" style="fill:#108404;stroke:#263238;stroke-linecap:round;stroke-linejoin:round"></path><path d="M133,243.88s.55,41.29-.93,50-4.47,23.06-3.91,24.36,6.88.37,13.39.19a47.19,47.19,0,0,0,11.72-1.86s5.76,1.3,7.25-3-2.6-26.22-2.6-31.24-3.35-29.57-3.35-29.57.93-18.05-1.12-21.39-7.62-5.77-10.41-6.14-8.74-.93-8.74-.93Z" style="fill:#fff;stroke:#263238;stroke-linecap:round;stroke-linejoin:round"></path><line x1="148.36" y1="263.67" x2="151.19" y2="263.59" style="fill:none;stroke:#263238;stroke-linecap:round;stroke-linejoin:round"></line><polyline points="148.03 259.87 136.5 259.69 136.69 263.96 145.46 263.74" style="fill:none;stroke:#263238;stroke-linecap:round;stroke-linejoin:round"></polyline><path d="M143.57,283.12s-4.84,3.53-5,9.3" style="fill:none;stroke:#263238;stroke-linecap:round;stroke-linejoin:round"></path><path d="M147.5,303c2.79-1.92,6.52-5.61,6.67-7.06.18-1.86-1.49-5-1.49-5" style="fill:none;stroke:#263238;stroke-linecap:round;stroke-linejoin:round"></path><path d="M141.71,304.32a5.08,5.08,0,0,0,2.89,0" style="fill:none;stroke:#263238;stroke-linecap:round;stroke-linejoin:round"></path><path d="M112.32,243s1.3,24.36,3,33.66,1.86,25.85,1.86,30.88-.19,9.29.18,10.78-2.23,1.49-9.3,2.42-19.34-2.6-19.52-4.09,2.23-18.23,2.41-21-.18-8.93-.18-8.93.56-19.15.93-24S87.77,239.79,87.4,237s-.74-4.65,1.86-6.14,19-7.25,19-7.25Z" style="fill:#fff;stroke:#263238;stroke-linecap:round;stroke-linejoin:round"></path><polyline points="105.22 264.02 97.07 264.34 96.89 262.11" style="fill:none;stroke:#263238;stroke-linecap:round;stroke-linejoin:round"></polyline><polyline points="97.63 259.87 111.76 259.87 111.58 263.78 107.45 263.94" style="fill:none;stroke:#263238;stroke-linecap:round;stroke-linejoin:round"></polyline><path d="M102.42,311.5c1.33.17,2.28.26,2.28.26" style="fill:none;stroke:#263238;stroke-linecap:round;stroke-linejoin:round"></path><path d="M93.72,298s-.93,10.42,1.12,11.72a11.85,11.85,0,0,0,3.36,1.09" style="fill:none;stroke:#263238;stroke-linecap:round;stroke-linejoin:round"></path><path d="M117.16,211.33s-8.19,2.79-10.23,5.77-8.56,20.83-8.56,20.83l13.95,5s-.18-13.39.19-17.3,5.58-8.37,10.41-8.37,9.12,8.93,9.3,11.16.75,15.44.75,15.44,5-4.65,6.69-5.58,9.12-2.42,9.12-2.42-6.7-12.46-9.3-15.44-8.37-8.18-13.58-9.48A13.94,13.94,0,0,0,117.16,211.33Z" style="fill:#263238;stroke:#263238;stroke-linecap:round;stroke-linejoin:round"></path><path d="M117.34,212.82a16.24,16.24,0,0,0-4.09,5.76c-1.11,3.17-.18,7.82-.18,10.23s.55,9.67.55,9.67,6.14-3.16,6.7-3.16,10.6,3,10.6,3,2.23-9.49,0-16.93S122.92,208.17,117.34,212.82Z" style="fill:#108404;stroke:#263238;stroke-linecap:round;stroke-linejoin:round"></path><path d="M147.47,196.45s.93,5,.19,8.56-2.79,5-2.79,5.76,1.12,3.72.56,5-2.79,1.68-2.79,1.68-4.47,6.69-6.33,7.44-6.51-.37-6.51-.37-3.72,9.11-6.32,11.53-2.79-4.1-3.72-5.4-2.6-17.11-2.6-17.11-4.09-9.48-5-16.74,7.62-14.5,16.36-16.18,16.18,3.72,18.6,7.63S149.33,194,147.47,196.45Z" style="fill:#ccc;stroke:#263238;stroke-linecap:round;stroke-linejoin:round"></path><path d="M122,211.33s-4.46-3.72-2.23-7.63,5.21-2.41,6.14-.93,1.3,1.68,2.79,1.68,1.67-1.86,2.23-2.42,4.84-.37,6.14-.93,1.67-1.86,1.67-3.35,2.05,0,5.21,0,3.53-1.3,3.53-1.3c1.86-2.42,2.05-4.28-.37-8.18s-9.86-9.3-18.6-7.63-17.29,8.93-16.36,16.18,5,16.74,5,16.74a57.08,57.08,0,0,0,5.76-2Z" style="fill:#263238;stroke:#263238;stroke-linecap:round;stroke-linejoin:round"></path><path d="M141,211c-.32.58-.84.91-1.15.74s-.31-.79,0-1.38.84-.91,1.15-.73S141.29,210.38,141,211Z" style="fill:#263238"></path><path d="M143.38,207.61a2.42,2.42,0,0,0-3.9-.37" style="fill:none;stroke:#263238;stroke-linecap:round;stroke-linejoin:round"></path><path d="M135.38,215.42s.38,2.23,4.47,3.54" style="fill:none;stroke:#263238;stroke-linecap:round;stroke-linejoin:round"></path><path d="M90.75,229.93s-6.7,3.16-6.88,6.14-7.44,32-7.26,35.15.37,5.39,1.86,6.88S95.4,290,95.4,290l6.13-9.11-9.85-13.58s4.09-10.23,4.65-11.16,1.48-6.32-.19-10.23" style="fill:#fff;stroke:#263238;stroke-linecap:round;stroke-linejoin:round"></path><path d="M81.65,269.15a5.4,5.4,0,0,1,2-1.09c2.42-.56,7.44,0,7.44,0a15.22,15.22,0,0,0-4.46-1.68c-2.24-.37-6.51.75-7.07,1.68" style="fill:none;stroke:#263238;stroke-linecap:round;stroke-linejoin:round"></path><path d="M78.29,272.71a21.61,21.61,0,0,1,1.79-2.12" style="fill:none;stroke:#263238;stroke-linecap:round;stroke-linejoin:round"></path><polygon points="101.53 280.89 104.14 284.61 97.26 290.75 95.4 290 101.53 280.89" style="fill:#ccc;stroke:#263238;stroke-linecap:round;stroke-linejoin:round"></polygon><line x1="108.6" y1="281.08" x2="94.28" y2="293.72" style="fill:none;stroke:#263238;stroke-linecap:round;stroke-linejoin:round"></line><path d="M150.08,241.83s-1.68,12.84-.93,15.07,11.16,12.83,11.16,12.83L149,281.26l3.72,9.67s10.23-6.32,14.69-9.3,8.19-6.88,8.37-9.48-.37-7.44-1.67-9.86-11.72-16.92-13-19.16-3.53-8.74-6-11.34a15.55,15.55,0,0,0-6.14-3.72" style="fill:#fff;stroke:#263238;stroke-linecap:round;stroke-linejoin:round"></path><path d="M160.31,269.73a30.88,30.88,0,0,1,3.34-2.6c1.49-.93,6-2.05,7.44-1.31" style="fill:none;stroke:#263238;stroke-linecap:round;stroke-linejoin:round"></path><path d="M166.7,263.48c-1.49.38-2.89,1-3.42,2" style="fill:none;stroke:#263238;stroke-linecap:round;stroke-linejoin:round"></path><path d="M171.28,262.85s-.82,0-1.95.16" style="fill:none;stroke:#263238;stroke-linecap:round;stroke-linejoin:round"></path></g><g id="freepik--Floor--inject-4"><line x1="477.03" y1="457.43" x2="483" y2="457.43" style="fill:none;stroke:#263238;stroke-linecap:round;stroke-linejoin:round"></line><line x1="70.85" y1="457.43" x2="473.84" y2="457.43" style="fill:none;stroke:#263238;stroke-linecap:round;stroke-linejoin:round"></line><line x1="11" y1="457.43" x2="65.8" y2="457.43" style="fill:none;stroke:#263238;stroke-linecap:round;stroke-linejoin:round"></line></g></svg>