<svg xmlns="http://www.w3.org/2000/svg" xmlns:xlink="http://www.w3.org/1999/xlink" version="1.1" x="0px" y="0px" viewBox="0 0 100 100" fill='#64CCC5' style="enable-background:new 0 0 100 100;" xml:space="preserve"><path d="M44,72.3000031c-16.8999996,0-30.6000004-13.7000046-30.6000004-30.6000023S27.1000004,11.0999985,44,11.0999985  s30.5999985,13.7000046,30.5999985,30.6000023S60.7999992,72.3000031,44,72.3000031 M44,15.0999985  c-14.7000008,0-26.6000004,11.9000015-26.6000004,26.6000023S29.2999992,68.3000031,44,68.3000031  s26.5999985-11.9000053,26.5999985-26.6000023S58.5999985,15.0999985,44,15.0999985"/><path d="M85.0999985,88.4000015c-0.6000061,0-1.1000061-0.2000046-1.5-0.7000046L63.4999962,64.8000031  C62.7999992,64,62.8999977,62.7000008,63.6999969,62c0.7999954-0.7000008,2.0999985-0.5999985,2.7999954,0.2000008  l20.2000046,22.8999977c0.6999969,0.8000031,0.5999985,2.0999985-0.2000046,2.8000031  C86.0999985,88.1999969,85.5999985,88.4000015,85.0999985,88.4000015"/><path d="M64.1999969,35.0999985c-0.7000008,0-1.4000015-0.3999939-1.8000031-1.0999985  c-1-2-3.2999992-5.5999985-7.5999985-8.0999985c-3.5-2-7-2.5-9.2999992-2.5c-1.0999985,0-2-0.9000015-2-2s0.9000015-2,2-2  C48.1999969,19.4000015,52.3999939,20,56.6999969,22.5c5,2.9000015,7.7999954,6.9000015,9.1999969,9.8000031  c0.5,1,0.0999985,2.1999969-0.9000015,2.6999969C64.7999954,35,64.4999924,35.0999985,64.1999969,35.0999985"/></svg>